# xmcd CD database file
#
# Track frame offsets:
#	150
#	18132
#	44088
#	65263
#	80938
#	101486
#	123633
#	142201
#	166919
#	188226
#	208659
#	229348
#
# Disc length: 3276 seconds
#
# Revision: 1
# Processed by: cddbd v1.5.2PL0 Copyright (c) Steve Scherf et al.
# Submitted via: CDex 1.51
#
DISCID=b10cca0c
DTITLE=Zucchero Sugar Fornaciari - Bluesugar and Whitechristmas
DYEAR=1999
DGENRE=Italiana
TTITLE0=You Make Me Feel Loved
TTITLE1=Blu
TTITLE2=Arcord
TTITLE3=Puro Amore
TTITLE4=Back 2 U
TTITLE5=Donkey Tonkey
TTITLE6=(Temporaneamente) X Sempre Tuo
TTITLE7=Eccetera Eccetera
TTITLE8=Karma, Stai Kalma
TTITLE9=Dopo Di Noi
TTITLE10=I Tempi Cambieranno
TTITLE11=White Christmas (Bonus Track)
EXTD=YEAR: 1999
EXTT0=
EXTT1=
EXTT2=
EXTT3=
EXTT4=
EXTT5=
EXTT6=
EXTT7=
EXTT8=Featuring Irene Fornaciari
EXTT9=
EXTT10=
EXTT11=
PLAYORDER=
